<svg xmlns="http://www.w3.org/2000/svg"  viewBox="0 0 100 100" width="80px" height="80px" baseProfile="basic"><path fill="#70b570" d="M83,31v39c0,7.17-5.83,13-13,13H31c-7.17,0-13-5.83-13-13V31c0-7.17,5.83-13,13-13h39 C77.17,18,83,23.83,83,31z"/><path fill="#fff" d="M51.46,36.99c-0.83,0-1.66,0.05-2.48,0.16V34c0-4.42-3.59-8.02-8.01-8.02 c-4.42,0-8.01,3.6-8.01,8.02v21.5c0,10.2,8.3,18.5,18.5,18.5c10.21,0,18.51-8.3,18.51-18.5C69.97,45.29,61.67,36.99,51.46,36.99z M49,55.5c0-1.53,1.53-2.49,2.49-2.49c1.37,0,2.48,1.11,2.48,2.48s-1.11,2.48-2.48,2.48S49,56.87,49,55.5z M51.46,70 c-8,0-14.5-6.5-14.5-14.5V34c0-2.22,1.8-4.02,4.01-4.02s4.01,1.8,4.01,4.02l0.03,21.49c0,3.58,2.9,6.48,6.48,6.48 c3.57,0,6.48-2.9,6.48-6.48c0-3.57-2.91-6.48-6.48-6.48c-0.87,0-1.71,0.17-2.48,0.5v-2.28c0.7-0.18,1.43-0.22,1.91-0.22 c0.16,0,0.28,0,0.38,0.01c0.05,0,0.1,0.01,0.16,0.01c4.66,0,8.44,3.79,8.44,8.44c0,4.66-3.78,8.45-8.44,8.45 c-4.66,0-8.45-3.79-8.45-8.45V33.99c0-1.1-0.9-2-2-2c-1.11,0-2,0.9-2,2v21.48c0,6.87,5.58,12.45,12.45,12.45 c6.86,0,12.44-5.58,12.44-12.45c0-6.84-5.54-12.4-12.37-12.44c-0.12-0.01-0.33-0.02-0.6-0.02c-0.48,0-1.16,0.03-1.92,0.14V41.2 c0.81-0.14,1.63-0.21,2.45-0.21c8,0,14.51,6.51,14.51,14.51S59.46,70,51.46,70z"/><path fill="#1f212b" d="M31,18c-7.168,0-13,5.832-13,13v39c0,7.168,5.832,13,13,13h39c7.168,0,13-5.832,13-13V31 c0-7.168-5.832-13-13-13H31z M31,20h39c6.065,0,11,4.935,11,11v39c0,6.065-4.935,11-11,11H31c-6.065,0-11-4.935-11-11V31 C20,24.935,24.935,20,31,20z M31.5,23c-4.688,0-8.5,3.812-8.5,8.5v23c-0.004,0.276,0.217,0.503,0.493,0.507 c0.276,0.004,0.503-0.217,0.507-0.493c0-0.005,0-0.009,0-0.014v-23c0-4.148,3.352-7.5,7.5-7.5h3 c0.276,0.004,0.503-0.217,0.507-0.493c0.004-0.276-0.217-0.503-0.493-0.507c-0.005,0-0.009,0-0.014,0H31.5z M37.5,23 c-0.276-0.004-0.503,0.217-0.507,0.493c-0.004,0.276,0.217,0.503,0.493,0.507c0.005,0,0.009,0,0.014,0h32 c4.148,0,7.5,3.352,7.5,7.5v38c0,4.148-3.352,7.5-7.5,7.5h-4c-0.276-0.004-0.503,0.217-0.507,0.493 c-0.004,0.276,0.217,0.503,0.493,0.507c0.005,0,0.009,0,0.014,0h4c4.688,0,8.5-3.812,8.5-8.5v-38c0-4.688-3.812-8.5-8.5-8.5H37.5z M23.492,56.992C23.216,56.996,22.996,57.224,23,57.5v0v5c-0.004,0.276,0.217,0.503,0.493,0.507 c0.276,0.004,0.503-0.217,0.507-0.493c0-0.005,0-0.009,0-0.014v-5c0.004-0.276-0.216-0.503-0.492-0.508 C23.503,56.992,23.497,56.992,23.492,56.992z M23.492,64.992C23.216,64.996,22.996,65.224,23,65.5v0v4c0,4.688,3.812,8.5,8.5,8.5 h30c0.276,0.004,0.503-0.217,0.507-0.493c0.004-0.276-0.217-0.503-0.493-0.507c-0.005,0-0.009,0-0.014,0h-30 c-4.148,0-7.5-3.352-7.5-7.5v-4c0.004-0.276-0.216-0.503-0.492-0.508C23.503,64.992,23.497,64.992,23.492,64.992z"/><path fill="#1f212b" d="M40.97,26.984c3.867,0,7.014,3.146,7.014,7.013v3.157c0,0.288,0.124,0.562,0.341,0.752 c0.183,0.161,0.418,0.248,0.659,0.248c0.044,0,0.088-0.003,0.132-0.009c0.777-0.104,1.566-0.156,2.347-0.156 c9.653,0,17.507,7.854,17.507,17.507s-7.854,17.507-17.507,17.507s-17.507-7.854-17.507-17.507V33.997 C33.956,30.13,37.102,26.984,40.97,26.984 M51.463,71.003c8.551,0,15.507-6.956,15.507-15.507s-6.956-15.507-15.507-15.507 c-0.88,0-1.762,0.074-2.623,0.221c-0.48,0.082-0.832,0.498-0.832,0.986l0,1.958c0,0.292,0.127,0.569,0.349,0.759 c0.183,0.157,0.414,0.241,0.651,0.241c0.05,0,0.101-0.004,0.151-0.011c0.719-0.11,1.358-0.133,1.768-0.133 c0.246,0,0.433,0.008,0.54,0.015c0.019,0.001,0.038,0.002,0.057,0.002c6.275,0.037,11.38,5.172,11.38,11.448 c0,6.312-5.135,11.447-11.447,11.447c-6.313,0-11.448-5.135-11.448-11.447V33.992c0-0.552,0.449-1,1-1s1,0.448,1,1v21.482 c0,5.209,4.238,9.447,9.448,9.447c5.209,0,9.447-4.238,9.447-9.447c0-5.21-4.238-9.448-9.447-9.448c-0.023,0-0.046,0-0.093-0.005 c-0.109-0.007-0.26-0.013-0.44-0.013c-0.433,0-1.29,0.032-2.157,0.247c-0.446,0.111-0.759,0.511-0.759,0.971l0,2.282 c0,0.334,0.167,0.647,0.446,0.832c0.167,0.111,0.36,0.168,0.554,0.168c0.13,0,0.262-0.026,0.386-0.077 c0.671-0.281,1.376-0.423,2.097-0.423c3.023,0,5.482,2.46,5.482,5.483c0,3.023-2.459,5.482-5.482,5.482 c-3.024,0-5.483-2.459-5.483-5.482l-0.022-21.495c0-2.764-2.249-5.013-5.014-5.013s-5.014,2.249-5.014,5.013v21.499 C35.956,64.047,42.912,71.003,51.463,71.003 M51.489,58.975c1.92,0,3.482-1.562,3.482-3.482c0-1.921-1.562-3.483-3.482-3.483 c-1.424,0-3.493,1.358-3.493,3.487C47.997,57.414,49.563,58.975,51.489,58.975 M40.97,25.984c-4.419,0-8.014,3.595-8.014,8.013 v21.499c0,10.205,8.302,18.507,18.507,18.507S69.97,65.701,69.97,55.496s-8.302-18.507-18.507-18.507 c-0.832,0-1.66,0.056-2.479,0.165v-3.157C48.983,29.579,45.389,25.984,40.97,25.984L40.97,25.984z M51.463,70.003 c-7.999,0-14.507-6.508-14.507-14.507V33.997c0-2.213,1.801-4.013,4.014-4.013s4.014,1.8,4.014,4.013l0.022,21.495 c0,3.574,2.908,6.482,6.483,6.482c3.574,0,6.482-2.908,6.482-6.482c0-3.575-2.908-6.483-6.482-6.483 c-0.864,0-1.707,0.176-2.482,0.5l0-2.282c0.699-0.173,1.435-0.218,1.917-0.218c0.153,0,0.281,0.004,0.373,0.011 c0.053,0.005,0.106,0.007,0.16,0.007c4.658,0,8.447,3.79,8.447,8.448s-3.789,8.447-8.447,8.447s-8.448-3.789-8.448-8.447V33.992 c0-1.104-0.896-2-2-2s-2,0.896-2,2v21.482c0,6.863,5.584,12.447,12.448,12.447c6.863,0,12.447-5.584,12.447-12.447 c0-6.84-5.544-12.408-12.374-12.448c-0.12-0.008-0.328-0.017-0.603-0.017c-0.48,0-1.161,0.028-1.919,0.145l0-1.958 c0.808-0.138,1.629-0.207,2.455-0.207c7.999,0,14.507,6.508,14.507,14.507S59.462,70.003,51.463,70.003L51.463,70.003z M51.489,57.975c-1.369,0-2.493-1.109-2.493-2.479c0-1.521,1.533-2.487,2.493-2.487c1.369,0,2.482,1.114,2.482,2.483 S52.858,57.975,51.489,57.975L51.489,57.975z"/></svg>